<svg width="17" height="13" viewBox="0 0 17 13" fill="none" xmlns="http://www.w3.org/2000/svg">
<path d="M17 7.5625C17 7.71169 16.9407 7.85476 16.8352 7.96025C16.7298 8.06574 16.5867 8.125 16.4375 8.125H15.3125V9.25C15.3125 9.39919 15.2532 9.54226 15.1477 9.64775C15.0423 9.75324 14.8992 9.8125 14.75 9.8125C14.6008 9.8125 14.4577 9.75324 14.3523 9.64775C14.2468 9.54226 14.1875 9.39919 14.1875 9.25V8.125H13.0625C12.9133 8.125 12.7702 8.06574 12.6648 7.96025C12.5593 7.85476 12.5 7.71169 12.5 7.5625C12.5 7.41332 12.5593 7.27025 12.6648 7.16476C12.7702 7.05927 12.9133 7 13.0625 7H14.1875V5.875C14.1875 5.72582 14.2468 5.58275 14.3523 5.47726C14.4577 5.37177 14.6008 5.3125 14.75 5.3125C14.8992 5.3125 15.0423 5.37177 15.1477 5.47726C15.2532 5.58275 15.3125 5.72582 15.3125 5.875V7H16.4375C16.5867 7 16.7298 7.05927 16.8352 7.16476C16.9407 7.27025 17 7.41332 17 7.5625ZM12.931 11.7004C13.0271 11.8147 13.0737 11.9625 13.0608 12.1112C13.0479 12.26 12.9764 12.3975 12.8621 12.4935C12.7478 12.5896 12.6 12.6363 12.4513 12.6233C12.3025 12.6104 12.165 12.5389 12.069 12.4246C10.6543 10.7399 8.70945 9.8125 6.59375 9.8125C4.47805 9.8125 2.5332 10.7399 1.11852 12.4246C1.02248 12.5388 0.885001 12.6102 0.736328 12.6231C0.587654 12.6359 0.439962 12.5892 0.325743 12.4932C0.211523 12.3971 0.140133 12.2597 0.127277 12.111C0.11442 11.9623 0.161151 11.8146 0.257188 11.7004C1.30766 10.4502 2.61406 9.56219 4.06602 9.08688C3.18423 8.53767 2.5053 7.71622 2.13195 6.74679C1.7586 5.77737 1.71114 4.71272 1.99675 3.71392C2.28236 2.71512 2.8855 1.83651 3.71492 1.21102C4.54434 0.585531 5.55492 0.247192 6.59375 0.247192C7.63258 0.247192 8.64316 0.585531 9.47258 1.21102C10.302 1.83651 10.9051 2.71512 11.1907 3.71392C11.4764 4.71272 11.4289 5.77737 11.0555 6.74679C10.6822 7.71622 10.0033 8.53767 9.12148 9.08688C10.5734 9.56219 11.8798 10.4502 12.931 11.7004ZM6.59375 8.6875C7.31689 8.6875 8.02379 8.47307 8.62505 8.07132C9.22632 7.66956 9.69495 7.09853 9.97169 6.43044C10.2484 5.76235 10.3208 5.0272 10.1797 4.31796C10.0387 3.60871 9.69045 2.95723 9.17911 2.4459C8.66777 1.93456 8.01629 1.58634 7.30705 1.44526C6.59781 1.30418 5.86266 1.37659 5.19456 1.65332C4.52647 1.93005 3.95544 2.39868 3.55369 2.99995C3.15194 3.60122 2.9375 4.30812 2.9375 5.03125C2.93862 6.00061 3.32419 6.92994 4.00962 7.61538C4.69506 8.30082 5.6244 8.68639 6.59375 8.6875Z" fill="white"/>
</svg>
