<svg width="16" height="15" viewBox="0 0 16 15" fill="none" xmlns="http://www.w3.org/2000/svg">
<path d="M5.46875 7.5625H1.8125C1.65683 7.56197 1.50296 7.52914 1.36063 7.46608C1.2183 7.40302 1.0906 7.31111 0.985623 7.19617C0.879131 7.07943 0.798074 6.94183 0.747599 6.7921C0.697124 6.64237 0.678333 6.48378 0.69242 6.3264C0.787939 5.27244 1.11146 4.25185 1.64056 3.33533C2.16966 2.41881 2.89169 1.62828 3.75664 1.01851C3.88441 0.928137 4.02963 0.865416 4.18302 0.834357C4.33641 0.803299 4.49459 0.804586 4.64746 0.838136C4.80032 0.871687 4.9445 0.936763 5.07079 1.0292C5.19707 1.12165 5.30268 1.23942 5.38086 1.375L7.20898 4.53906C7.24592 4.60305 7.26989 4.67368 7.27952 4.74693C7.28916 4.82019 7.28427 4.89462 7.26514 4.96598C7.24601 5.03735 7.21301 5.10424 7.16803 5.16285C7.12304 5.22146 7.06696 5.27064 7.00297 5.30757C6.93898 5.34451 6.86834 5.36848 6.79509 5.37811C6.72184 5.38775 6.6474 5.38286 6.57604 5.36373C6.50468 5.3446 6.43778 5.3116 6.37917 5.26662C6.32056 5.22163 6.27139 5.16555 6.23445 5.10156L4.40633 1.9375C3.67431 2.45314 3.06318 3.1218 2.61529 3.89714C2.16741 4.67247 1.89348 5.53592 1.8125 6.42765C1.81236 6.42978 1.81273 6.43192 1.81359 6.43388C1.81445 6.43583 1.81576 6.43756 1.81742 6.4389L5.46875 6.4375C5.61793 6.4375 5.76101 6.49676 5.8665 6.60225C5.97198 6.70774 6.03125 6.85081 6.03125 7C6.03125 7.14918 5.97198 7.29225 5.8665 7.39774C5.76101 7.50323 5.61793 7.5625 5.46875 7.5625ZM15.3076 6.3264C15.2121 5.27244 14.8885 4.25185 14.3594 3.33533C13.8303 2.41881 13.1083 1.62828 12.2434 1.01851C12.1156 0.928137 11.9704 0.865416 11.817 0.834357C11.6636 0.803299 11.5054 0.804586 11.3525 0.838136C11.1997 0.871687 11.0555 0.936763 10.9292 1.0292C10.8029 1.12165 10.6973 1.23942 10.6191 1.375L8.79453 4.53906C8.7576 4.60305 8.73363 4.67368 8.72399 4.74693C8.71436 4.82019 8.71924 4.89462 8.73837 4.96598C8.77701 5.11011 8.87131 5.23298 9.00054 5.30757C9.12978 5.38217 9.28335 5.40237 9.42747 5.36373C9.49883 5.3446 9.56573 5.3116 9.62434 5.26662C9.68295 5.22163 9.73213 5.16555 9.76906 5.10156L11.5972 1.9375C12.3284 2.45364 12.9388 3.12249 13.386 3.89777C13.8333 4.67306 14.1067 5.53626 14.1875 6.42765C14.1875 6.43257 14.1875 6.43609 14.1875 6.4375H10.5312C10.3821 6.4375 10.239 6.49676 10.1335 6.60225C10.028 6.70774 9.96875 6.85081 9.96875 7C9.96875 7.14918 10.028 7.29225 10.1335 7.39774C10.239 7.50323 10.3821 7.5625 10.5312 7.5625H14.1875C14.3432 7.56197 14.497 7.52914 14.6394 7.46608C14.7817 7.40302 14.9094 7.31111 15.0144 7.19617C15.1209 7.07943 15.2019 6.94183 15.2524 6.7921C15.3029 6.64237 15.3217 6.48378 15.3076 6.3264ZM9.75289 8.91109C9.71595 8.8471 9.66678 8.79101 9.60817 8.74603C9.54956 8.70105 9.48266 8.66805 9.4113 8.64892C9.33993 8.62979 9.2655 8.6249 9.19225 8.63453C9.119 8.64417 9.04836 8.66814 8.98437 8.70507C8.92038 8.74201 8.8643 8.79118 8.81931 8.84979C8.77433 8.9084 8.74133 8.9753 8.7222 9.04666C8.70307 9.11803 8.69818 9.19246 8.70782 9.26571C8.71745 9.33896 8.74142 9.4096 8.77836 9.47359L10.5952 12.6187C9.7815 12.9934 8.89624 13.1875 8.00035 13.1875C7.10446 13.1875 6.2192 12.9934 5.40547 12.6187L7.22164 9.47359C7.25857 9.4096 7.28254 9.33896 7.29218 9.26571C7.30181 9.19246 7.29693 9.11803 7.2778 9.04666C7.25867 8.9753 7.22567 8.9084 7.18068 8.84979C7.1357 8.79118 7.07961 8.74201 7.01562 8.70507C6.95163 8.66814 6.881 8.64417 6.80775 8.63453C6.73449 8.6249 6.66006 8.62979 6.5887 8.64892C6.51733 8.66805 6.45044 8.70105 6.39183 8.74603C6.33322 8.79101 6.28404 8.8471 6.24711 8.91109L4.43164 12.0562C4.35347 12.1914 4.30433 12.3415 4.28735 12.4968C4.27037 12.6521 4.28592 12.8092 4.33302 12.9582C4.38012 13.1072 4.45772 13.2447 4.56089 13.362C4.66407 13.4793 4.79054 13.5739 4.93226 13.6396C5.89421 14.0829 6.94081 14.3125 8 14.3125C9.05918 14.3125 10.1058 14.0829 11.0677 13.6396C11.2095 13.5739 11.3359 13.4793 11.4391 13.362C11.5423 13.2447 11.6199 13.1072 11.667 12.9582C11.7141 12.8092 11.7296 12.6521 11.7126 12.4968C11.6957 12.3415 11.6465 12.1914 11.5684 12.0562L9.75289 8.91109ZM8 7.84375C8.16688 7.84375 8.33001 7.79426 8.46876 7.70155C8.60751 7.60883 8.71566 7.47706 8.77952 7.32288C8.84338 7.16871 8.86009 6.99906 8.82754 6.83539C8.79498 6.67172 8.71462 6.52137 8.59662 6.40337C8.47862 6.28537 8.32828 6.20501 8.16461 6.17246C8.00093 6.1399 7.83128 6.15661 7.67711 6.22047C7.52293 6.28433 7.39116 6.39248 7.29845 6.53123C7.20573 6.66999 7.15625 6.83312 7.15625 7C7.15625 7.22377 7.24514 7.43838 7.40338 7.59662C7.56161 7.75485 7.77622 7.84375 8 7.84375Z" fill="white"/>
</svg>
