<svg width="12" height="14" viewBox="0 0 12 14" fill="none" xmlns="http://www.w3.org/2000/svg">
<path d="M4.3125 0.25H1.5C1.20163 0.25 0.915483 0.368526 0.704505 0.579505C0.493526 0.790483 0.375 1.07663 0.375 1.375V12.625C0.375 12.9234 0.493526 13.2095 0.704505 13.4205C0.915483 13.6315 1.20163 13.75 1.5 13.75H4.3125C4.61087 13.75 4.89702 13.6315 5.10799 13.4205C5.31897 13.2095 5.4375 12.9234 5.4375 12.625V1.375C5.4375 1.07663 5.31897 0.790483 5.10799 0.579505C4.89702 0.368526 4.61087 0.25 4.3125 0.25ZM4.3125 12.625H1.5V1.375H4.3125V12.625ZM10.5 0.25H7.6875C7.38913 0.25 7.10298 0.368526 6.89201 0.579505C6.68103 0.790483 6.5625 1.07663 6.5625 1.375V12.625C6.5625 12.9234 6.68103 13.2095 6.89201 13.4205C7.10298 13.6315 7.38913 13.75 7.6875 13.75H10.5C10.7984 13.75 11.0845 13.6315 11.2955 13.4205C11.5065 13.2095 11.625 12.9234 11.625 12.625V1.375C11.625 1.07663 11.5065 0.790483 11.2955 0.579505C11.0845 0.368526 10.7984 0.25 10.5 0.25ZM10.5 12.625H7.6875V1.375H10.5V12.625Z" fill="#7D8088"/>
</svg>
