<svg width="16" height="12" viewBox="0 0 16 12" fill="none" xmlns="http://www.w3.org/2000/svg">
<path d="M13.5589 2.67211C12.8298 1.94132 11.9632 1.36209 11.0091 0.96784C10.055 0.573586 9.03232 0.3721 8 0.375H7.97187C3.64555 0.389766 0.125 3.96094 0.125 8.32945V9.9375C0.125 10.2359 0.243526 10.522 0.454505 10.733C0.665483 10.944 0.951631 11.0625 1.25 11.0625H14.75C15.0484 11.0625 15.3345 10.944 15.5455 10.733C15.7565 10.522 15.875 10.2359 15.875 9.9375V8.25C15.8779 7.21316 15.6746 6.18608 15.277 5.22851C14.8794 4.27093 14.2954 3.40195 13.5589 2.67211ZM14.75 9.9375H7.41711L11.2674 4.64297C11.3553 4.52232 11.3916 4.37171 11.3684 4.22429C11.3451 4.07687 11.2643 3.94471 11.1437 3.85687C11.023 3.76904 10.8724 3.73274 10.725 3.75594C10.5776 3.77915 10.4454 3.85997 10.3576 3.98062L6.02562 9.9375H1.25V8.32945C1.25 8.11289 1.26055 7.89914 1.28023 7.6875H2.9375C3.08668 7.6875 3.22976 7.62824 3.33525 7.52275C3.44074 7.41726 3.5 7.27418 3.5 7.125C3.5 6.97582 3.44074 6.83274 3.33525 6.72725C3.22976 6.62176 3.08668 6.5625 2.9375 6.5625H1.47992C2.20555 3.83016 4.57367 1.76437 7.4375 1.52391V3.1875C7.4375 3.33668 7.49676 3.47976 7.60225 3.58525C7.70774 3.69074 7.85082 3.75 8 3.75C8.14918 3.75 8.29226 3.69074 8.39775 3.58525C8.50324 3.47976 8.5625 3.33668 8.5625 3.1875V1.5232C9.95796 1.64064 11.2825 2.18857 12.3531 3.09128C13.4237 3.994 14.1876 5.20694 14.5391 6.5625H13.0625C12.9133 6.5625 12.7702 6.62176 12.6648 6.72725C12.5593 6.83274 12.5 6.97582 12.5 7.125C12.5 7.27418 12.5593 7.41726 12.6648 7.52275C12.7702 7.62824 12.9133 7.6875 13.0625 7.6875H14.7268C14.7416 7.87383 14.75 8.06086 14.75 8.25V9.9375Z" fill="white"/>
</svg>
