<svg width="18" height="8" viewBox="0 0 18 8" fill="none" xmlns="http://www.w3.org/2000/svg">
<path d="M5.625 3.4375H12.375C12.5242 3.4375 12.6673 3.49676 12.7727 3.60225C12.8782 3.70774 12.9375 3.85082 12.9375 4C12.9375 4.14918 12.8782 4.29226 12.7727 4.39775C12.6673 4.50324 12.5242 4.5625 12.375 4.5625H5.625C5.47582 4.5625 5.33274 4.50324 5.22725 4.39775C5.12176 4.29226 5.0625 4.14918 5.0625 4C5.0625 3.85082 5.12176 3.70774 5.22725 3.60225C5.33274 3.49676 5.47582 3.4375 5.625 3.4375ZM7.3125 6.8125H4.5C3.75408 6.8125 3.03871 6.51618 2.51126 5.98874C1.98382 5.46129 1.6875 4.74592 1.6875 4C1.6875 3.25408 1.98382 2.53871 2.51126 2.01126C3.03871 1.48382 3.75408 1.1875 4.5 1.1875H7.3125C7.46168 1.1875 7.60476 1.12824 7.71025 1.02275C7.81574 0.917258 7.875 0.774184 7.875 0.625C7.875 0.475816 7.81574 0.332742 7.71025 0.227253C7.60476 0.121763 7.46168 0.0625 7.3125 0.0625H4.5C3.45571 0.0625 2.45419 0.477343 1.71577 1.21577C0.977343 1.95419 0.5625 2.95571 0.5625 4C0.5625 5.04429 0.977343 6.04581 1.71577 6.78423C2.45419 7.52266 3.45571 7.9375 4.5 7.9375H7.3125C7.46168 7.9375 7.60476 7.87824 7.71025 7.77275C7.81574 7.66726 7.875 7.52418 7.875 7.375C7.875 7.22582 7.81574 7.08274 7.71025 6.97725C7.60476 6.87176 7.46168 6.8125 7.3125 6.8125ZM13.5 0.0625H10.6875C10.5383 0.0625 10.3952 0.121763 10.2898 0.227253C10.1843 0.332742 10.125 0.475816 10.125 0.625C10.125 0.774184 10.1843 0.917258 10.2898 1.02275C10.3952 1.12824 10.5383 1.1875 10.6875 1.1875H13.5C14.2459 1.1875 14.9613 1.48382 15.4887 2.01126C16.0162 2.53871 16.3125 3.25408 16.3125 4C16.3125 4.74592 16.0162 5.46129 15.4887 5.98874C14.9613 6.51618 14.2459 6.8125 13.5 6.8125H10.6875C10.5383 6.8125 10.3952 6.87176 10.2898 6.97725C10.1843 7.08274 10.125 7.22582 10.125 7.375C10.125 7.52418 10.1843 7.66726 10.2898 7.77275C10.3952 7.87824 10.5383 7.9375 10.6875 7.9375H13.5C14.5443 7.9375 15.5458 7.52266 16.2842 6.78423C17.0227 6.04581 17.4375 5.04429 17.4375 4C17.4375 2.95571 17.0227 1.95419 16.2842 1.21577C15.5458 0.477343 14.5443 0.0625 13.5 0.0625Z" fill="#B8B9BD"/>
</svg>
