<svg width="14" height="12" viewBox="0 0 14 12" fill="none" xmlns="http://www.w3.org/2000/svg">
<path d="M4.1875 1.5C4.1875 1.35082 4.24676 1.20774 4.35225 1.10225C4.45774 0.996763 4.60082 0.9375 4.75 0.9375H13.1875C13.3367 0.9375 13.4798 0.996763 13.5852 1.10225C13.6907 1.20774 13.75 1.35082 13.75 1.5C13.75 1.64918 13.6907 1.79226 13.5852 1.89775C13.4798 2.00324 13.3367 2.0625 13.1875 2.0625H4.75C4.60082 2.0625 4.45774 2.00324 4.35225 1.89775C4.24676 1.79226 4.1875 1.64918 4.1875 1.5ZM13.1875 5.4375H4.75C4.60082 5.4375 4.45774 5.49676 4.35225 5.60225C4.24676 5.70774 4.1875 5.85082 4.1875 6C4.1875 6.14918 4.24676 6.29226 4.35225 6.39775C4.45774 6.50324 4.60082 6.5625 4.75 6.5625H13.1875C13.3367 6.5625 13.4798 6.50324 13.5852 6.39775C13.6907 6.29226 13.75 6.14918 13.75 6C13.75 5.85082 13.6907 5.70774 13.5852 5.60225C13.4798 5.49676 13.3367 5.4375 13.1875 5.4375ZM13.1875 9.9375H4.75C4.60082 9.9375 4.45774 9.99676 4.35225 10.1023C4.24676 10.2077 4.1875 10.3508 4.1875 10.5C4.1875 10.6492 4.24676 10.7923 4.35225 10.8977C4.45774 11.0032 4.60082 11.0625 4.75 11.0625H13.1875C13.3367 11.0625 13.4798 11.0032 13.5852 10.8977C13.6907 10.7923 13.75 10.6492 13.75 10.5C13.75 10.3508 13.6907 10.2077 13.5852 10.1023C13.4798 9.99676 13.3367 9.9375 13.1875 9.9375ZM1.9375 0.9375H0.8125C0.663316 0.9375 0.520242 0.996763 0.414753 1.10225C0.309263 1.20774 0.25 1.35082 0.25 1.5C0.25 1.64918 0.309263 1.79226 0.414753 1.89775C0.520242 2.00324 0.663316 2.0625 0.8125 2.0625H1.9375C2.08668 2.0625 2.22976 2.00324 2.33525 1.89775C2.44074 1.79226 2.5 1.64918 2.5 1.5C2.5 1.35082 2.44074 1.20774 2.33525 1.10225C2.22976 0.996763 2.08668 0.9375 1.9375 0.9375ZM1.9375 5.4375H0.8125C0.663316 5.4375 0.520242 5.49676 0.414753 5.60225C0.309263 5.70774 0.25 5.85082 0.25 6C0.25 6.14918 0.309263 6.29226 0.414753 6.39775C0.520242 6.50324 0.663316 6.5625 0.8125 6.5625H1.9375C2.08668 6.5625 2.22976 6.50324 2.33525 6.39775C2.44074 6.29226 2.5 6.14918 2.5 6C2.5 5.85082 2.44074 5.70774 2.33525 5.60225C2.22976 5.49676 2.08668 5.4375 1.9375 5.4375ZM1.9375 9.9375H0.8125C0.663316 9.9375 0.520242 9.99676 0.414753 10.1023C0.309263 10.2077 0.25 10.3508 0.25 10.5C0.25 10.6492 0.309263 10.7923 0.414753 10.8977C0.520242 11.0032 0.663316 11.0625 0.8125 11.0625H1.9375C2.08668 11.0625 2.22976 11.0032 2.33525 10.8977C2.44074 10.7923 2.5 10.6492 2.5 10.5C2.5 10.3508 2.44074 10.2077 2.33525 10.1023C2.22976 9.99676 2.08668 9.9375 1.9375 9.9375Z" fill="#7D8088"/>
</svg>
