<svg width="17" height="18" viewBox="0 0 17 18" fill="none" xmlns="http://www.w3.org/2000/svg">
<path d="M16.75 9C16.75 9.18234 16.6776 9.35721 16.5486 9.48614C16.4197 9.61507 16.2448 9.6875 16.0625 9.6875H9.1875V16.5625C9.1875 16.7448 9.11507 16.9197 8.98614 17.0486C8.85721 17.1776 8.68234 17.25 8.5 17.25C8.31766 17.25 8.1428 17.1776 8.01386 17.0486C7.88493 16.9197 7.8125 16.7448 7.8125 16.5625V9.6875H0.9375C0.755164 9.6875 0.580295 9.61507 0.451364 9.48614C0.322433 9.35721 0.25 9.18234 0.25 9C0.25 8.81766 0.322433 8.6428 0.451364 8.51386C0.580295 8.38493 0.755164 8.3125 0.9375 8.3125H7.8125V1.4375C7.8125 1.25516 7.88493 1.0803 8.01386 0.951364C8.1428 0.822433 8.31766 0.75 8.5 0.75C8.68234 0.75 8.85721 0.822433 8.98614 0.951364C9.11507 1.0803 9.1875 1.25516 9.1875 1.4375V8.3125H16.0625C16.2448 8.3125 16.4197 8.38493 16.5486 8.51386C16.6776 8.6428 16.75 8.81766 16.75 9Z" fill="white"/>
</svg>
