<svg width="14" height="18" viewBox="0 0 14 18" fill="none" xmlns="http://www.w3.org/2000/svg">
<path d="M13.1728 8.30882C13.1515 8.21866 13.1082 8.13516 13.0469 8.06574C12.9856 7.99631 12.908 7.94311 12.8212 7.91085L8.77049 6.3914L9.80127 1.23538C9.82461 1.11558 9.80836 0.991444 9.75496 0.881696C9.70156 0.771948 9.61391 0.682546 9.50524 0.626982C9.39657 0.571417 9.27278 0.552704 9.15254 0.573668C9.0323 0.594631 8.92215 0.654132 8.83869 0.743193L0.963695 9.18069C0.899735 9.24809 0.853466 9.33028 0.829021 9.41992C0.804576 9.50956 0.802717 9.60386 0.823609 9.69439C0.844502 9.78493 0.887495 9.86887 0.948749 9.93874C1.01 10.0086 1.08761 10.0622 1.17463 10.0948L5.22674 11.6142L4.19877 16.7646C4.17543 16.8844 4.19169 17.0085 4.24509 17.1183C4.29849 17.228 4.38614 17.3174 4.49481 17.373C4.60348 17.4286 4.72727 17.4473 4.84751 17.4263C4.96774 17.4053 5.0779 17.3458 5.16135 17.2568L13.0364 8.81929C13.0992 8.75188 13.1444 8.67007 13.1682 8.58107C13.192 8.49206 13.1936 8.39857 13.1728 8.30882ZM5.6901 15.0469L6.42627 11.3639C6.45262 11.2333 6.43174 11.0975 6.36736 10.9809C6.30298 10.8642 6.19927 10.7742 6.07471 10.7269L2.3594 9.33116L8.30924 2.95663L7.57377 6.6396C7.54743 6.77022 7.5683 6.90595 7.63269 7.02261C7.69707 7.13927 7.80078 7.22929 7.92534 7.27663L11.6378 8.66882L5.6901 15.0469Z" fill="#7D8088"/>
</svg>
