<svg width="14" height="12" viewBox="0 0 14 12" fill="none" xmlns="http://www.w3.org/2000/svg">
<path d="M0.25 2.625C0.25 2.47582 0.309263 2.33274 0.414753 2.22725C0.520242 2.12176 0.663316 2.0625 0.8125 2.0625H3.0625C3.21168 2.0625 3.35476 2.12176 3.46025 2.22725C3.56574 2.33274 3.625 2.47582 3.625 2.625C3.625 2.77418 3.56574 2.91726 3.46025 3.02275C3.35476 3.12824 3.21168 3.1875 3.0625 3.1875H0.8125C0.663316 3.1875 0.520242 3.12824 0.414753 3.02275C0.309263 2.91726 0.25 2.77418 0.25 2.625ZM13.1875 8.8125H10.375V7.6875C10.375 7.53832 10.3157 7.39524 10.2102 7.28975C10.1048 7.18426 9.96168 7.125 9.8125 7.125C9.66332 7.125 9.52024 7.18426 9.41475 7.28975C9.30926 7.39524 9.25 7.53832 9.25 7.6875V11.0625C9.25 11.2117 9.30926 11.3548 9.41475 11.4602C9.52024 11.5657 9.66332 11.625 9.8125 11.625C9.96168 11.625 10.1048 11.5657 10.2102 11.4602C10.3157 11.3548 10.375 11.2117 10.375 11.0625V9.9375H13.1875C13.3367 9.9375 13.4798 9.87824 13.5852 9.77275C13.6907 9.66726 13.75 9.52418 13.75 9.375C13.75 9.22582 13.6907 9.08274 13.5852 8.97725C13.4798 8.87176 13.3367 8.8125 13.1875 8.8125ZM7.5625 8.8125H0.8125C0.663316 8.8125 0.520242 8.87176 0.414753 8.97725C0.309263 9.08274 0.25 9.22582 0.25 9.375C0.25 9.52418 0.309263 9.66726 0.414753 9.77275C0.520242 9.87824 0.663316 9.9375 0.8125 9.9375H7.5625C7.71168 9.9375 7.85476 9.87824 7.96025 9.77275C8.06574 9.66726 8.125 9.52418 8.125 9.375C8.125 9.22582 8.06574 9.08274 7.96025 8.97725C7.85476 8.87176 7.71168 8.8125 7.5625 8.8125ZM5.3125 4.875C5.46168 4.875 5.60476 4.81574 5.71025 4.71025C5.81574 4.60476 5.875 4.46168 5.875 4.3125V3.1875H13.1875C13.3367 3.1875 13.4798 3.12824 13.5852 3.02275C13.6907 2.91726 13.75 2.77418 13.75 2.625C13.75 2.47582 13.6907 2.33274 13.5852 2.22725C13.4798 2.12176 13.3367 2.0625 13.1875 2.0625H5.875V0.9375C5.875 0.788316 5.81574 0.645242 5.71025 0.539753C5.60476 0.434263 5.46168 0.375 5.3125 0.375C5.16332 0.375 5.02024 0.434263 4.91475 0.539753C4.80926 0.645242 4.75 0.788316 4.75 0.9375V4.3125C4.75 4.46168 4.80926 4.60476 4.91475 4.71025C5.02024 4.81574 5.16332 4.875 5.3125 4.875Z" fill="white"/>
</svg>
