<svg width="15" height="15" viewBox="0 0 15 15" fill="none" xmlns="http://www.w3.org/2000/svg">
<path d="M7.28125 0.6875C5.41707 0.689547 3.62984 1.43099 2.31167 2.74917C0.993495 4.06734 0.252047 5.85457 0.25 7.71875V13.6482C0.250372 13.9403 0.366573 14.2203 0.57312 14.4269C0.779666 14.6334 1.0597 14.7496 1.3518 14.75H7.28125C9.14605 14.75 10.9345 14.0092 12.2531 12.6906C13.5717 11.372 14.3125 9.58355 14.3125 7.71875C14.3125 5.85395 13.5717 4.06552 12.2531 2.74691C10.9345 1.42829 9.14605 0.6875 7.28125 0.6875ZM7.28125 13.625H1.375V7.71875C1.375 6.5506 1.7214 5.40869 2.37038 4.43741C3.01937 3.46614 3.9418 2.70912 5.02103 2.26209C6.10025 1.81506 7.2878 1.69809 8.4335 1.92599C9.5792 2.15388 10.6316 2.7164 11.4576 3.5424C12.2836 4.3684 12.8461 5.4208 13.074 6.5665C13.3019 7.7122 13.1849 8.89975 12.7379 9.97897C12.2909 11.0582 11.5339 11.9806 10.5626 12.6296C9.59131 13.2786 8.4494 13.625 7.28125 13.625ZM8.125 8C8.125 8.16688 8.07551 8.33001 7.9828 8.46876C7.89009 8.60752 7.75831 8.71566 7.60414 8.77952C7.44996 8.84338 7.28031 8.86009 7.11664 8.82754C6.95297 8.79498 6.80263 8.71462 6.68463 8.59662C6.56663 8.47862 6.48627 8.32828 6.45371 8.16461C6.42116 8.00094 6.43787 7.83129 6.50173 7.67711C6.56559 7.52294 6.67373 7.39116 6.81249 7.29845C6.95124 7.20573 7.11437 7.15625 7.28125 7.15625C7.50503 7.15625 7.71964 7.24514 7.87787 7.40338C8.0361 7.56161 8.125 7.77622 8.125 8ZM5.03125 8C5.03125 8.16688 4.98177 8.33001 4.88905 8.46876C4.79634 8.60752 4.66456 8.71566 4.51039 8.77952C4.35621 8.84338 4.18656 8.86009 4.02289 8.82754C3.85922 8.79498 3.70888 8.71462 3.59088 8.59662C3.47288 8.47862 3.39252 8.32828 3.35996 8.16461C3.32741 8.00094 3.34412 7.83129 3.40798 7.67711C3.47184 7.52294 3.57998 7.39116 3.71874 7.29845C3.85749 7.20573 4.02062 7.15625 4.1875 7.15625C4.41128 7.15625 4.62589 7.24514 4.78412 7.40338C4.94236 7.56161 5.03125 7.77622 5.03125 8ZM11.2188 8C11.2188 8.16688 11.1693 8.33001 11.0766 8.46876C10.9838 8.60752 10.8521 8.71566 10.6979 8.77952C10.5437 8.84338 10.3741 8.86009 10.2104 8.82754C10.0467 8.79498 9.89638 8.71462 9.77838 8.59662C9.66038 8.47862 9.58002 8.32828 9.54746 8.16461C9.51491 8.00094 9.53162 7.83129 9.59548 7.67711C9.65934 7.52294 9.76748 7.39116 9.90624 7.29845C10.045 7.20573 10.2081 7.15625 10.375 7.15625C10.5988 7.15625 10.8134 7.24514 10.9716 7.40338C11.1299 7.56161 11.2188 7.77622 11.2188 8Z" fill="#B8B9BD"/>
</svg>
