<svg width="4" height="16" viewBox="0 0 4 16" fill="none" xmlns="http://www.w3.org/2000/svg">
<path d="M3.125 8C3.125 8.2225 3.05902 8.44001 2.9354 8.62502C2.81179 8.81002 2.63609 8.95422 2.43052 9.03936C2.22495 9.12451 1.99875 9.14679 1.78052 9.10338C1.56229 9.05998 1.36184 8.95283 1.20451 8.7955C1.04717 8.63816 0.940025 8.43771 0.896617 8.21948C0.853209 8.00125 0.875487 7.77505 0.960636 7.56948C1.04578 7.36391 1.18998 7.18821 1.37498 7.0646C1.55999 6.94098 1.7775 6.875 2 6.875C2.29837 6.875 2.58452 6.99353 2.79549 7.20451C3.00647 7.41548 3.125 7.70163 3.125 8ZM2 2.75C2.2225 2.75 2.44001 2.68402 2.62502 2.5604C2.81002 2.43679 2.95422 2.26109 3.03936 2.05552C3.12451 1.84995 3.14679 1.62375 3.10338 1.40552C3.05998 1.1873 2.95283 0.986839 2.79549 0.829505C2.63816 0.672171 2.43771 0.565025 2.21948 0.521617C2.00125 0.478209 1.77505 0.500487 1.56948 0.585636C1.36391 0.670785 1.18821 0.814979 1.0646 0.999984C0.94098 1.18499 0.875001 1.4025 0.875001 1.625C0.875001 1.92337 0.993527 2.20952 1.20451 2.4205C1.41548 2.63147 1.70163 2.75 2 2.75ZM2 13.25C1.7775 13.25 1.55999 13.316 1.37498 13.4396C1.18998 13.5632 1.04578 13.7389 0.960636 13.9445C0.875487 14.15 0.853209 14.3762 0.896617 14.5945C0.940025 14.8127 1.04717 15.0132 1.20451 15.1705C1.36184 15.3278 1.56229 15.435 1.78052 15.4784C1.99875 15.5218 2.22495 15.4995 2.43052 15.4144C2.63609 15.3292 2.81179 15.185 2.9354 15C3.05902 14.815 3.125 14.5975 3.125 14.375C3.125 14.0766 3.00647 13.7905 2.79549 13.5795C2.58452 13.3685 2.29837 13.25 2 13.25Z" fill="#B8B9BD"/>
</svg>
