<svg width="14" height="14" viewBox="0 0 14 14" fill="none" xmlns="http://www.w3.org/2000/svg">
<path d="M13.75 7.00001C13.75 7.14919 13.6907 7.29227 13.5853 7.39776C13.4798 7.50324 13.3367 7.56251 13.1875 7.56251H7.00001C6.85082 7.56251 6.70775 7.50324 6.60226 7.39776C6.49677 7.29227 6.43751 7.14919 6.43751 7.00001C6.43751 6.85082 6.49677 6.70775 6.60226 6.60226C6.70775 6.49677 6.85082 6.43751 7.00001 6.43751H13.1875C13.3367 6.43751 13.4798 6.49677 13.5853 6.60226C13.6907 6.70775 13.75 6.85082 13.75 7.00001ZM7.00001 3.06251H13.1875C13.3367 3.06251 13.4798 3.00324 13.5853 2.89776C13.6907 2.79227 13.75 2.64919 13.75 2.50001C13.75 2.35082 13.6907 2.20775 13.5853 2.10226C13.4798 1.99677 13.3367 1.93751 13.1875 1.93751H7.00001C6.85082 1.93751 6.70775 1.99677 6.60226 2.10226C6.49677 2.20775 6.43751 2.35082 6.43751 2.50001C6.43751 2.64919 6.49677 2.79227 6.60226 2.89776C6.70775 3.00324 6.85082 3.06251 7.00001 3.06251ZM13.1875 10.9375H7.00001C6.85082 10.9375 6.70775 10.9968 6.60226 11.1023C6.49677 11.2077 6.43751 11.3508 6.43751 11.5C6.43751 11.6492 6.49677 11.7923 6.60226 11.8978C6.70775 12.0032 6.85082 12.0625 7.00001 12.0625H13.1875C13.3367 12.0625 13.4798 12.0032 13.5853 11.8978C13.6907 11.7923 13.75 11.6492 13.75 11.5C13.75 11.3508 13.6907 11.2077 13.5853 11.1023C13.4798 10.9968 13.3367 10.9375 13.1875 10.9375ZM3.78954 0.977039L1.93751 2.82977L1.21048 2.10204C1.10493 1.99649 0.961775 1.93719 0.812508 1.93719C0.66324 1.93719 0.520087 1.99649 0.414539 2.10204C0.308991 2.20759 0.249695 2.35074 0.249695 2.50001C0.249695 2.64927 0.308991 2.79243 0.414539 2.89798L1.53954 4.02298C1.59178 4.07528 1.65382 4.11676 1.7221 4.14507C1.79039 4.17338 1.86359 4.18795 1.93751 4.18795C2.01143 4.18795 2.08463 4.17338 2.15291 4.14507C2.2212 4.11676 2.28324 4.07528 2.33548 4.02298L4.58548 1.77298C4.69102 1.66743 4.75032 1.52427 4.75032 1.37501C4.75032 1.22574 4.69102 1.08259 4.58548 0.977039C4.47993 0.871491 4.33677 0.812195 4.18751 0.812195C4.03824 0.812195 3.89509 0.871491 3.78954 0.977039ZM3.78954 5.47704L1.93751 7.32977L1.21048 6.60204C1.10493 6.49649 0.961775 6.43719 0.812508 6.43719C0.66324 6.43719 0.520087 6.49649 0.414539 6.60204C0.308991 6.70759 0.249695 6.85074 0.249695 7.00001C0.249695 7.07392 0.264252 7.1471 0.292536 7.21539C0.32082 7.28367 0.362277 7.34571 0.414539 7.39798L1.53954 8.52298C1.59178 8.57528 1.65382 8.61677 1.7221 8.64507C1.79039 8.67338 1.86359 8.68795 1.93751 8.68795C2.01143 8.68795 2.08463 8.67338 2.15291 8.64507C2.2212 8.61677 2.28324 8.57528 2.33548 8.52298L4.58548 6.27298C4.69102 6.16743 4.75032 6.02427 4.75032 5.87501C4.75032 5.72574 4.69102 5.58259 4.58548 5.47704C4.47993 5.37149 4.33677 5.31219 4.18751 5.31219C4.03824 5.31219 3.89509 5.37149 3.78954 5.47704ZM3.78954 9.97704L1.93751 11.8298L1.21048 11.102C1.15821 11.0498 1.09617 11.0083 1.02789 10.98C0.959603 10.9518 0.886417 10.9372 0.812508 10.9372C0.738598 10.9372 0.665412 10.9518 0.597128 10.98C0.528845 11.0083 0.466801 11.0498 0.414539 11.102C0.362277 11.1543 0.32082 11.2163 0.292536 11.2846C0.264252 11.3529 0.249695 11.4261 0.249695 11.5C0.249695 11.5739 0.264252 11.6471 0.292536 11.7154C0.32082 11.7837 0.362277 11.8457 0.414539 11.898L1.53954 13.023C1.59178 13.0753 1.65382 13.1168 1.7221 13.1451C1.79039 13.1734 1.86359 13.188 1.93751 13.188C2.01143 13.188 2.08463 13.1734 2.15291 13.1451C2.2212 13.1168 2.28324 13.0753 2.33548 13.023L4.58548 10.773C4.69102 10.6674 4.75032 10.5243 4.75032 10.375C4.75032 10.2257 4.69102 10.0826 4.58548 9.97704C4.47993 9.87149 4.33677 9.81219 4.18751 9.81219C4.03824 9.81219 3.89509 9.87149 3.78954 9.97704Z" fill="#B8B9BD"/>
</svg>
