<svg width="18" height="12" viewBox="0 0 18 12" fill="none" xmlns="http://www.w3.org/2000/svg">
<path d="M8.24414 8.10375C8.99803 7.60186 9.57039 6.87067 9.87659 6.01832C10.1828 5.16597 10.2065 4.23771 9.94437 3.37081C9.6822 2.50391 9.148 1.74439 8.42078 1.20457C7.69356 0.664751 6.81193 0.373291 5.90625 0.373291C5.00057 0.373291 4.11893 0.664751 3.39171 1.20457C2.66449 1.74439 2.1303 2.50391 1.86812 3.37081C1.60595 4.23771 1.62972 5.16597 1.93591 6.01832C2.2421 6.87067 2.81446 7.60186 3.56836 8.10375C2.20464 8.60637 1.03999 9.53646 0.2482 10.7552C0.206586 10.8171 0.177681 10.8866 0.163165 10.9597C0.148649 11.0328 0.148811 11.1081 0.163643 11.1812C0.178475 11.2542 0.20768 11.3236 0.24956 11.3853C0.291441 11.4469 0.345162 11.4997 0.4076 11.5404C0.470039 11.5811 0.539949 11.609 0.613268 11.6225C0.686587 11.636 0.761852 11.6347 0.834688 11.6188C0.907523 11.603 0.976477 11.5728 1.03754 11.53C1.0986 11.4873 1.15056 11.4328 1.19039 11.3698C1.70113 10.5842 2.40001 9.93871 3.22357 9.49185C4.04713 9.04498 4.96927 8.81092 5.90625 8.81092C6.84323 8.81092 7.76537 9.04498 8.58892 9.49185C9.41248 9.93871 10.1114 10.5842 10.6221 11.3698C10.7046 11.4924 10.8321 11.5776 10.9769 11.607C11.1217 11.6364 11.2723 11.6076 11.3961 11.5269C11.5199 11.4462 11.6069 11.32 11.6384 11.1756C11.6699 11.0312 11.6433 10.8802 11.5643 10.7552C10.7725 9.53646 9.60785 8.60637 8.24414 8.10375ZM2.8125 4.59375C2.8125 3.98187 2.99394 3.38372 3.33389 2.87496C3.67383 2.36619 4.15701 1.96966 4.72232 1.7355C5.28763 1.50134 5.90968 1.44008 6.50981 1.55945C7.10994 1.67882 7.66119 1.97347 8.09386 2.40614C8.52653 2.83881 8.82118 3.39006 8.94055 3.99019C9.05992 4.59032 8.99866 5.21237 8.7645 5.77768C8.53034 6.34299 8.13381 6.82617 7.62504 7.16611C7.11628 7.50606 6.51813 7.6875 5.90625 7.6875C5.08602 7.68657 4.29965 7.36033 3.71966 6.78034C3.13967 6.20035 2.81343 5.41398 2.8125 4.59375ZM17.588 11.5336C17.463 11.6151 17.3108 11.6436 17.1649 11.6129C17.0189 11.5821 16.8911 11.4947 16.8096 11.3698C16.2995 10.5838 15.6007 9.93796 14.777 9.49128C13.9532 9.0446 13.0308 8.81125 12.0937 8.8125C11.9446 8.8125 11.8015 8.75324 11.696 8.64775C11.5905 8.54226 11.5312 8.39919 11.5312 8.25C11.5312 8.10082 11.5905 7.95774 11.696 7.85225C11.8015 7.74677 11.9446 7.6875 12.0937 7.6875C12.5494 7.68707 12.9992 7.58602 13.4113 7.39157C13.8233 7.19711 14.1873 6.91406 14.4772 6.56262C14.7672 6.21119 14.9759 5.80006 15.0885 5.3586C15.2012 4.91713 15.2149 4.45624 15.1288 4.00886C15.0427 3.56147 14.8588 3.13863 14.5903 2.77055C14.3218 2.40246 13.9753 2.09823 13.5756 1.87957C13.1759 1.66092 12.7328 1.53324 12.278 1.50567C11.8233 1.4781 11.368 1.55132 10.9448 1.72008C10.8758 1.74991 10.8016 1.7656 10.7264 1.76624C10.6512 1.76688 10.5767 1.75244 10.5072 1.72378C10.4377 1.69512 10.3747 1.65283 10.3218 1.59939C10.2689 1.54595 10.2273 1.48246 10.1994 1.41267C10.1715 1.34287 10.1578 1.26819 10.1592 1.19303C10.1607 1.11787 10.1772 1.04377 10.2077 0.975086C10.2383 0.906407 10.2823 0.844549 10.3372 0.793169C10.392 0.741788 10.4566 0.701927 10.5272 0.67594C11.4957 0.289679 12.573 0.275779 13.5511 0.636922C14.5293 0.998064 15.3391 1.70866 15.8242 2.63162C16.3094 3.55459 16.4356 4.62452 16.1784 5.63502C15.9212 6.64552 15.299 7.52499 14.4316 8.10375C15.7954 8.60637 16.96 9.53646 17.7518 10.7552C17.8333 10.8802 17.8618 11.0324 17.8311 11.1783C17.8003 11.3243 17.7129 11.4521 17.588 11.5336Z" fill="white"/>
</svg>
