<svg width="16" height="22" viewBox="0 0 16 22" fill="none" xmlns="http://www.w3.org/2000/svg">
<path d="M15.5445 10.1552C15.5184 10.045 15.4656 9.94299 15.3906 9.85813C15.3157 9.77328 15.2209 9.70825 15.1148 9.66883L10.1639 7.81172L11.4237 1.50992C11.4523 1.3635 11.4324 1.21177 11.3671 1.07764C11.3019 0.943501 11.1947 0.834232 11.0619 0.76632C10.9291 0.698408 10.7778 0.675537 10.6309 0.701159C10.4839 0.72678 10.3493 0.799504 10.2473 0.908356L0.622264 11.2209C0.54409 11.3032 0.487539 11.4037 0.457662 11.5132C0.427785 11.6228 0.425512 11.7381 0.451047 11.8487C0.476582 11.9594 0.52913 12.062 0.603996 12.1474C0.678861 12.2327 0.773713 12.2983 0.880076 12.338L5.83265 14.1952L4.57625 20.4901C4.54772 20.6365 4.56759 20.7882 4.63286 20.9224C4.69812 21.0565 4.80525 21.1658 4.93807 21.2337C5.07088 21.3016 5.22219 21.3245 5.36914 21.2988C5.5161 21.2732 5.65073 21.2005 5.75273 21.0916L15.3777 10.7791C15.4545 10.6967 15.5098 10.5968 15.5389 10.488C15.568 10.3792 15.5699 10.2649 15.5445 10.1552ZM6.39898 18.3906L7.29875 13.8892C7.33095 13.7296 7.30543 13.5637 7.22674 13.4211C7.14805 13.2785 7.0213 13.1685 6.86906 13.1106L2.32812 11.4048L9.60015 3.61367L8.70125 8.11508C8.66905 8.27472 8.69456 8.44061 8.77325 8.5832C8.85194 8.72579 8.9787 8.83581 9.13094 8.89367L13.6684 10.5952L6.39898 18.3906Z" fill="#D4B3FF"/>
</svg>
